# xmcd
#
# Track frame offsets: 
#        182
#        11485
#        23863
#        36900
#        49852
#        61822
#        75680
#        85341
#        97274
#        110667
#        121932
#        132463
#        142194
#        154488
#        167095
#        180208
#        190871
#        202710
#        216142
#        229301
#        242527
#        254897
#
# Disc length: 3566 seconds
#
# Revision: 0
# Processed by: cddbd v1.5.2PL0 Copyright (c) Steve Scherf et al.
# Submitted via: ExactAudioCopy v0.99pb5
#
DISCID=3a0dec16
DTITLE=Walter Brown - 1947-1951
DYEAR=1900
DGENRE=Blues
TTITLE0=W.B. Blues
TTITLE1=Sloppy Drunk
TTITLE2=Lovin' a Beggar
TTITLE3=Just Thinkin'
TTITLE4=Play the Blues
TTITLE5=What Evil Have I Done
TTITLE6=Gonna Play With Your Woman
TTITLE7=Work Don't Bother Me
TTITLE8=Inform Me Baby
TTITLE9=Lyin' Woman Blues
TTITLE10=Supressin' the Blues
TTITLE11=Hello and Goodbye
TTITLE12=You Better Leave My Woman Alone
TTITLE13=You, Cindy Lou
TTITLE14=Squabblin' Woman
TTITLE15=I'm Gonna Get Married
TTITLE16=New Style Baby
TTITLE17=Let's Love Awhile
TTITLE18=Nasty Attitude
TTITLE19=Slow Down Baby
TTITLE20=The Search
TTITLE21=A B C Blues
EXTD=
EXTT0=
EXTT1=
EXTT2=
EXTT3=
EXTT4=
EXTT5=
EXTT6=
EXTT7=
EXTT8=
EXTT9=
EXTT10=
EXTT11=
EXTT12=
EXTT13=
EXTT14=
EXTT15=
EXTT16=
EXTT17=
EXTT18=
EXTT19=
EXTT20=
EXTT21=
PLAYORDER=
